# xmcd
#
# Track frame offsets:
#	210
#	21599
#	39345
#	63101
#	68353
#	86860
#	110869
#	127377
#	137669
#	158288
#	174955
#	185556
#	208446
#
# Disc length: 3111 seconds
#
# Revision: 1
# Processed by: cddbd v1.5.1PL0 Copyright (c) Steve Scherf et al.
# Submitted via: audiograbber 1.82.02
#
DISCID=ba0c250d
DTITLE=Oscar Klein and Heini Altbart - Gospel Spiritual Blues
DYEAR=1900
DGENRE=Gospel
TTITLE0=When the saints go marching in
TTITLE1=Swing low, sweet chariot
TTITLE2=Just a closer walk with thee
TTITLE3=Yakanaka Vangheri
TTITLE4=Amen
TTITLE5=Amazing Grace
TTITLE6=Go down moses
TTITLE7=Good night, sweetheart
TTITLE8=St Anna Blues
TTITLE9=Go tell it on the mountain
TTITLE10=Ol´ man river
TTITLE11=Glory Glory Hallelujah
TTITLE12=Oh Happy Day
EXTD=
EXTT0=
EXTT1=
EXTT2=
EXTT3=
EXTT4=
EXTT5=
EXTT6=
EXTT7=
EXTT8=
EXTT9=
EXTT10=
EXTT11=
EXTT12=
PLAYORDER=
